<?xml version="1.0" encoding="UTF-8" standalone="no"?>
<!-- Created with Inkscape (http://www.inkscape.org/) -->

<svg
   version="1.1"
   id="svg2"
   xml:space="preserve"
   width="45.297611"
   height="38.714546"
   viewBox="0 0 45.297611 38.714546"
   sodipodi:docname="logo.svg"
   inkscape:version="1.1.2 (0a00cf5339, 2022-02-04)"
   inkscape:export-filename="/home/nathan/Desktop/tickety/static/images/icon.png"
   inkscape:export-xdpi="96"
   inkscape:export-ydpi="96"
   xmlns:inkscape="http://www.inkscape.org/namespaces/inkscape"
   xmlns:sodipodi="http://sodipodi.sourceforge.net/DTD/sodipodi-0.dtd"
   xmlns="http://www.w3.org/2000/svg"
   xmlns:svg="http://www.w3.org/2000/svg"><defs
     id="defs6"><clipPath
       clipPathUnits="userSpaceOnUse"
       id="clipPath16"><path
         d="M 0,500 H 500 V 0 H 0 Z"
         id="path14" /></clipPath><clipPath
       clipPathUnits="userSpaceOnUse"
       id="clipPath242"><path
         d="M 0,500 H 500 V 0 H 0 Z"
         id="path240" /></clipPath><clipPath
       clipPathUnits="userSpaceOnUse"
       id="clipPath254"><path
         d="M 0,500 H 500 V 0 H 0 Z"
         id="path252" /></clipPath><clipPath
       clipPathUnits="userSpaceOnUse"
       id="clipPath304"><path
         d="m 229.417,161.114 h 74.445 V 86.586 h -74.445 z"
         id="path302" /></clipPath><clipPath
       clipPathUnits="userSpaceOnUse"
       id="clipPath478"><path
         d="M 0,500 H 500 V 0 H 0 Z"
         id="path476" /></clipPath><clipPath
       clipPathUnits="userSpaceOnUse"
       id="clipPath490"><path
         d="m 65.9337,64.3896 h 5.1128 V 34.2919 h -5.1128 z"
         id="path488" /></clipPath><clipPath
       clipPathUnits="userSpaceOnUse"
       id="clipPath506"><path
         d="m 73.6705,69.0526 h 2.9906 v -3.0661 h -2.9906 z"
         id="path504" /></clipPath><clipPath
       clipPathUnits="userSpaceOnUse"
       id="clipPath550"><path
         d="m 126.74,46.553 h 3.209 v -3.1933 h -3.209 z"
         id="path548" /></clipPath><clipPath
       clipPathUnits="userSpaceOnUse"
       id="clipPath566"><path
         d="M 94.8151,36.5238 H 136.109 V 32.805 H 94.8151 Z"
         id="path564" /></clipPath><clipPath
       clipPathUnits="userSpaceOnUse"
       id="clipPath598"><path
         d="m 114.789,61.7647 h 20.447 v -4.3824 h -20.447 z"
         id="path596" /></clipPath><clipPath
       clipPathUnits="userSpaceOnUse"
       id="clipPath710"><path
         d="m 105.003,267.242 h 59.519 v -8.902 h -59.519 z"
         id="path708" /></clipPath><clipPath
       clipPathUnits="userSpaceOnUse"
       id="clipPath726"><path
         d="M 117.327,241.194 H 140 v -9.855 h -22.673 z"
         id="path724" /></clipPath><clipPath
       clipPathUnits="userSpaceOnUse"
       id="clipPath838"><path
         d="M 0,500 H 500 V 0 H 0 Z"
         id="path836" /></clipPath><clipPath
       clipPathUnits="userSpaceOnUse"
       id="clipPath866"><path
         d="M 0,500 H 500 V 0 H 0 Z"
         id="path864" /></clipPath><clipPath
       clipPathUnits="userSpaceOnUse"
       id="clipPath882"><path
         d="m 434.08,119.274 h 4.771 v -12.702 h -4.771 z"
         id="path880" /></clipPath><clipPath
       clipPathUnits="userSpaceOnUse"
       id="clipPath926"><path
         d="m 409.379,157.103 h 3.054 v -12.747 h -3.054 z"
         id="path924" /></clipPath><clipPath
       clipPathUnits="userSpaceOnUse"
       id="clipPath998"><path
         d="m 389.921,229.59 h 18.841 v -78.52 h -18.841 z"
         id="path996" /></clipPath><clipPath
       clipPathUnits="userSpaceOnUse"
       id="clipPath1206"><path
         d="m 426.402,265.591 h 2.839 V 80.5623 h -2.839 z"
         id="path1204" /></clipPath><clipPath
       clipPathUnits="userSpaceOnUse"
       id="clipPath1222"><path
         d="m 437.125,190.911 h 17.851 v -77.623 h -17.851 z"
         id="path1220" /></clipPath><clipPath
       clipPathUnits="userSpaceOnUse"
       id="clipPath1248"><path
         d="M 0,500 H 500 V 0 H 0 Z"
         id="path1246" /></clipPath><clipPath
       clipPathUnits="userSpaceOnUse"
       id="clipPath5169"><path
         d="M 0,500 H 500 V 0 H 0 Z"
         id="path5167" /></clipPath><clipPath
       clipPathUnits="userSpaceOnUse"
       id="clipPath5177"><path
         d="M 0,500 H 500 V 0 H 0 Z"
         id="path5175" /></clipPath><clipPath
       clipPathUnits="userSpaceOnUse"
       id="clipPath5191"><path
         d="M 34.5164,235.154 H 474.875 V 77.2174 H 34.5164 Z"
         id="path5189" /></clipPath><clipPath
       clipPathUnits="userSpaceOnUse"
       id="clipPath5207"><path
         d="M 34.5164,429.937 H 474.875 V 272 H 34.5164 Z"
         id="path5205" /></clipPath><clipPath
       clipPathUnits="userSpaceOnUse"
       id="clipPath5223"><path
         d="M 0,500 H 500 V 0 H 0 Z"
         id="path5221" /></clipPath><clipPath
       clipPathUnits="userSpaceOnUse"
       id="clipPath5239"><path
         d="m 53.337,240.154 c 0,-13.156 -10.665,-23.82 -23.821,-23.82 v 0 -110.296 c 13.156,0 23.821,-10.665 23.821,-23.82 v 0 h 167.11 l 58.497,157.936 z"
         id="path5237" /></clipPath><clipPath
       clipPathUnits="userSpaceOnUse"
       id="clipPath5251"><path
         d="M 0,500 H 500 V 0 H 0 Z"
         id="path5249" /></clipPath><clipPath
       clipPathUnits="userSpaceOnUse"
       id="clipPath5331"><path
         d="m 211.903,136.195 c 0,-4.652 3.772,-8.424 8.424,-8.424 v 0 c 4.653,0 8.425,3.772 8.425,8.424 v 0 c 0,4.653 -3.772,8.425 -8.425,8.425 v 0 c -4.652,0 -8.424,-3.772 -8.424,-8.425"
         id="path5329" /></clipPath><clipPath
       clipPathUnits="userSpaceOnUse"
       id="clipPath5347"><path
         d="M 0,500 H 500 V 0 H 0 Z"
         id="path5345" /></clipPath><clipPath
       clipPathUnits="userSpaceOnUse"
       id="clipPath5363"><path
         d="m 234.932,136.195 c 0,-4.652 3.772,-8.424 8.425,-8.424 v 0 c 4.653,0 8.425,3.772 8.425,8.424 v 0 c 0,4.653 -3.772,8.425 -8.425,8.425 v 0 c -4.653,0 -8.425,-3.772 -8.425,-8.425"
         id="path5361" /></clipPath><clipPath
       clipPathUnits="userSpaceOnUse"
       id="clipPath5379"><path
         d="M 0,500 H 500 V 0 H 0 Z"
         id="path5377" /></clipPath><clipPath
       clipPathUnits="userSpaceOnUse"
       id="clipPath5619"><path
         d="M 278.944,434.937 220.447,277 h 225.607 c 0,13.155 10.665,23.82 23.821,23.82 v 0 110.296 c -13.156,0 -23.821,10.665 -23.821,23.821 v 0 z"
         id="path5617" /></clipPath><clipPath
       clipPathUnits="userSpaceOnUse"
       id="clipPath5631"><path
         d="M 0,500 H 500 V 0 H 0 Z"
         id="path5629" /></clipPath><clipPath
       clipPathUnits="userSpaceOnUse"
       id="clipPath5663"><path
         d="m 219.686,350.746 c 0,-6.235 3.565,-11.826 9.203,-15.636 v 0 c -0.498,-2.508 -3.839,-5.16 -3.839,-7.909 v 0 c 0,-7.373 3.548,-14.073 7.574,-19.037 v 0 c 2.481,-3.06 6.097,-4.801 9.89,-4.801 v 0 h 8.268 c 3.793,0 7.409,1.741 9.89,4.801 v 0 c 4.026,4.964 7.575,11.663 7.575,19.037 v 0 c 0,2.749 -3.342,5.401 -3.84,7.909 v 0 c 5.638,3.81 9.203,9.401 9.203,15.636 v 0 c 0,11.482 -12.071,20.79 -26.961,20.79 v 0 c -14.891,0 -26.963,-9.308 -26.963,-20.79"
         id="path5661" /></clipPath><clipPath
       clipPathUnits="userSpaceOnUse"
       id="clipPath5675"><path
         d="M 0,500 H 500 V 0 H 0 Z"
         id="path5673" /></clipPath><clipPath
       clipPathUnits="userSpaceOnUse"
       id="clipPath5695"><path
         d="m 222.289,341.012 c 0,-5.489 5.104,-9.939 11.401,-9.939 v 0 c 6.298,0 11.402,4.45 11.402,9.939 v 0 c 0,5.49 -5.104,6.31 -11.402,6.31 v 0 c -6.297,0 -11.401,-0.82 -11.401,-6.31"
         id="path5693" /></clipPath><clipPath
       clipPathUnits="userSpaceOnUse"
       id="clipPath5711"><path
         d="M 0,500 H 500 V 0 H 0 Z"
         id="path5709" /></clipPath><clipPath
       clipPathUnits="userSpaceOnUse"
       id="clipPath5723"><path
         d="m 248.205,341.012 c 0,-5.489 5.104,-9.939 11.402,-9.939 v 0 c 6.296,0 11.401,4.45 11.401,9.939 v 0 c 0,5.49 -5.105,6.31 -11.401,6.31 v 0 c -6.298,0 -11.402,-0.82 -11.402,-6.31"
         id="path5721" /></clipPath><clipPath
       clipPathUnits="userSpaceOnUse"
       id="clipPath5739"><path
         d="M 0,500 H 500 V 0 H 0 Z"
         id="path5737" /></clipPath><clipPath
       clipPathUnits="userSpaceOnUse"
       id="clipPath5755"><path
         d="m 246.67,361.822 c -7.216,0 -6.978,-6.868 -6.978,-6.868 v 0 h 6.978 0.044 6.978 c 0,0 0.238,6.868 -6.978,6.868 v 0 z"
         id="path5753" /></clipPath><clipPath
       clipPathUnits="userSpaceOnUse"
       id="clipPath5767"><path
         d="m 246.67,361.822 c -1.166,0 -2.137,-0.18 -2.946,-0.48 v 0 c -0.451,-0.607 -0.718,-1.358 -0.718,-2.172 v 0 c 0,-2.011 1.631,-3.642 3.643,-3.642 v 0 c 2.011,0 3.642,1.631 3.642,3.642 v 0 c 0,0.833 -0.28,1.601 -0.751,2.215 v 0 c -0.784,0.274 -1.717,0.437 -2.826,0.437 v 0 z"
         id="path5765" /></clipPath><clipPath
       clipPathUnits="userSpaceOnUse"
       id="clipPath5779"><path
         d="m 246.67,361.822 c -7.216,0 -6.978,-6.868 -6.978,-6.868 v 0 h 6.978 0.044 6.978 c 0,0 0.238,6.868 -6.978,6.868 v 0 z"
         id="path5777" /></clipPath><clipPath
       clipPathUnits="userSpaceOnUse"
       id="clipPath5791"><path
         d="M 0,500 H 500 V 0 H 0 Z"
         id="path5789" /></clipPath><clipPath
       clipPathUnits="userSpaceOnUse"
       id="clipPath6015"><path
         d="M 0,500 H 500 V 0 H 0 Z"
         id="path6013" /></clipPath><clipPath
       clipPathUnits="userSpaceOnUse"
       id="clipPath6099"><path
         d="M 0,500 H 500 V 0 H 0 Z"
         id="path6097" /></clipPath><clipPath
       clipPathUnits="userSpaceOnUse"
       id="clipPath6167"><path
         d="M 0,500 H 500 V 0 H 0 Z"
         id="path6165" /></clipPath><clipPath
       clipPathUnits="userSpaceOnUse"
       id="clipPath6291"><path
         d="M 0,500 H 500 V 0 H 0 Z"
         id="path6289" /></clipPath><clipPath
       clipPathUnits="userSpaceOnUse"
       id="clipPath6431"><path
         d="M 0,500 H 500 V 0 H 0 Z"
         id="path6429" /></clipPath><clipPath
       clipPathUnits="userSpaceOnUse"
       id="clipPath6599"><path
         d="M 0,500 H 500 V 0 H 0 Z"
         id="path6597" /></clipPath><clipPath
       clipPathUnits="userSpaceOnUse"
       id="clipPath6761"><path
         d="M 0,500 H 500 V 0 H 0 Z"
         id="path6759" /></clipPath><clipPath
       clipPathUnits="userSpaceOnUse"
       id="clipPath6829"><path
         d="M 0,500 H 500 V 0 H 0 Z"
         id="path6827" /></clipPath><clipPath
       clipPathUnits="userSpaceOnUse"
       id="clipPath6953"><path
         d="M 0,500 H 500 V 0 H 0 Z"
         id="path6951" /></clipPath><clipPath
       clipPathUnits="userSpaceOnUse"
       id="clipPath7093"><path
         d="M 0,500 H 500 V 0 H 0 Z"
         id="path7091" /></clipPath><clipPath
       clipPathUnits="userSpaceOnUse"
       id="clipPath7261"><path
         d="M 0,500 H 500 V 0 H 0 Z"
         id="path7259" /></clipPath></defs><sodipodi:namedview
     id="namedview4"
     pagecolor="#505050"
     bordercolor="#ffffff"
     borderopacity="1"
     inkscape:pageshadow="0"
     inkscape:pageopacity="0"
     inkscape:pagecheckerboard="1"
     showgrid="false"
     inkscape:zoom="1.173"
     inkscape:cx="187.97955"
     inkscape:cy="181.15943"
     inkscape:window-width="1920"
     inkscape:window-height="1016"
     inkscape:window-x="0"
     inkscape:window-y="0"
     inkscape:window-maximized="1"
     inkscape:current-layer="g8"
     fit-margin-top="0"
     fit-margin-left="0"
     fit-margin-right="0"
     fit-margin-bottom="0" /><g
     id="g8"
     inkscape:groupmode="layer"
     inkscape:label="4636940"
     transform="matrix(1.3333333,0,0,-1.3333333,-43.981038,515.06554)"><g
       id="g10416"
       transform="matrix(0.07714905,0,0,0.07714905,30.440958,356.49655)"><g
         id="g5159"
         inkscape:label="10519196"
         transform="translate(3.4691796,145.31551)"><g
           id="g5217"><g
             id="g5219"
             clip-path="url(#clipPath5223)"><g
               id="g5225"
               transform="translate(29.5166,216.334)"
               style="fill:#6b8e23;fill-opacity:1"><path
                 d="m 0,0 v -110.296 c 13.155,0 23.82,-10.665 23.82,-23.82 H 190.931 L 249.428,23.82 H 23.82 C 23.82,10.664 13.155,0 0,0"
                 style="fill:#393939;fill-opacity:1;fill-rule:nonzero;stroke:none"
                 id="path5227" /></g><g
               id="g5229"
               transform="translate(446.0547,240.1543)"><path
                 d="m 0,0 h -167.11 l -58.497,-157.937 H 0 c 0,13.156 10.664,23.821 23.82,23.821 V -23.82 C 10.664,-23.82 0,-13.156 0,0"
                 style="fill:#ffffff;fill-opacity:1;fill-rule:nonzero;stroke:none"
                 id="path5231" /></g></g></g></g><rect
         style="fill:#393939;fill-opacity:1;stroke-width:2.21421"
         id="rect9207"
         width="144.32146"
         height="376.36121"
         x="177.08002"
         y="-386.29916"
         transform="scale(1,-1)"
         ry="44.74205" /></g></g></svg>
